<?xml version="1.0" encoding="UTF-8"?>
<svg width="24" height="24" viewBox="0 0 24 24" fill="none" xmlns="http://www.w3.org/2000/svg">
  <path d="M4.5 16.5C-0.5 13.5 0.5 5 2 3.5C3.5 2 7.5 0.5 10.5 4.5C13.5 8.5 12 12.5 10.5 14C9 15.5 7.5 19.5 4.5 16.5Z" stroke="#AC6AFF" stroke-width="2" stroke-linecap="round" stroke-linejoin="round"/>
  <path d="M12 15C15.866 15 19 11.866 19 8C19 4.13401 15.866 1 12 1C8.13401 1 5 4.13401 5 8C5 11.866 8.13401 15 12 15Z" stroke="#AC6AFF" stroke-width="2" stroke-linecap="round" stroke-linejoin="round"/>
  <path d="M12 5V8" stroke="#AC6AFF" stroke-width="2" stroke-linecap="round" stroke-linejoin="round"/>
  <path d="M15 8H12" stroke="#AC6AFF" stroke-width="2" stroke-linecap="round" stroke-linejoin="round"/>
</svg> 